<svg xmlns="http://www.w3.org/2000/svg" viewBox="0 0 375 812" fill="none">
  <defs>
    <style>
      @import url('https://fonts.googleapis.com/css2?family=Inter:wght@400;500;600;700&amp;display=swap');
      text { font-family: 'Inter', -apple-system, BlinkMacSystemFont, "Segoe UI", Roboto, Helvetica, Arial, sans-serif; }
    </style>
     <filter id="shadow-m" x="-4" y="-4" width="120%" height="120%">
      <feDropShadow dx="0" dy="2" stdDeviation="3" flood-color="#000000" flood-opacity="0.05"/>
    </filter>
  </defs>

  <!-- Device Frame -->
  <rect width="375" height="812" fill="#f8fafc"/>
  
  <!-- Status Bar -->
  <path d="M0 0h375v44H0z" fill="#ffffff"/>
  <rect x="336" y="17" width="22" height="11" rx="2.5" stroke="#000" stroke-width="1"/>
  <path d="M0 0h375v44H0z" fill="#ffffff" fill-opacity="0.9"/>
  <text x="21" y="30" font-size="14" font-weight="600">9:41</text>

  <!-- Header -->
  <rect y="44" width="375" height="60" fill="#ffffff"/>
  <rect y="103" width="375" height="1" fill="#e2e8f0"/>
  
  <g transform="translate(16, 60)">
    <rect width="24" height="2" rx="1" fill="#1e293b"/>
    <rect y="8" width="24" height="2" rx="1" fill="#1e293b"/>
    <rect y="16" width="24" height="2" rx="1" fill="#1e293b"/>
  </g>
  
  <text x="56" y="80" font-size="18" font-weight="700" fill="#3b82f6">CloudNav</text>

  <!-- Add Button -->
  <g transform="translate(320, 58)">
    <circle cx="20" cy="20" r="16" fill="#3b82f6"/>
    <path d="M20 14v12 M14 20h12" stroke="white" stroke-width="2"/>
  </g>

  <!-- Content -->
  <g transform="translate(16, 120)">
    
    <!-- Pinned -->
    <text x="0" y="14" font-size="12" font-weight="700" fill="#64748b" letter-spacing="1">置顶 / 常用</text>
    
    <g transform="translate(0, 30)">
        <g filter="url(#shadow-m)">
           <rect width="165" height="64" rx="12" fill="white" stroke="#e2e8f0"/>
           <rect x="12" y="12" width="40" height="40" rx="8" fill="#f1f5f9"/>
           <text x="27" y="37" font-size="18" font-weight="bold" fill="#0f172a">G</text>
           <text x="60" y="28" font-size="14" font-weight="600" fill="#1e293b">GitHub</text>
           <text x="60" y="46" font-size="11" fill="#64748b">代码...</text>
        </g>
        <g transform="translate(175, 0)" filter="url(#shadow-m)">
           <rect width="165" height="64" rx="12" fill="white" stroke="#e2e8f0"/>
           <rect x="12" y="12" width="40" height="40" rx="8" fill="#f0fdf4"/>
           <text x="27" y="37" font-size="18" font-weight="bold" fill="#16a34a">C</text>
           <text x="60" y="28" font-size="14" font-weight="600" fill="#1e293b">ChatGPT</text>
           <text x="60" y="46" font-size="11" fill="#64748b">AI...</text>
        </g>
    </g>

    <!-- Main List -->
    <g transform="translate(0, 110)">
        <text x="0" y="14" font-size="12" font-weight="700" fill="#64748b" letter-spacing="1">所有链接</text>
        
        <g transform="translate(0, 30)">
            <g filter="url(#shadow-m)">
                <rect width="343" height="64" rx="12" fill="white" stroke="#e2e8f0"/>
                <rect x="12" y="12" width="40" height="40" rx="8" fill="#eff6ff"/>
                <text x="64" y="28" font-size="14" font-weight="600" fill="#1e293b">Google Gemini</text>
                <text x="64" y="46" font-size="11" fill="#64748b">Google's Generative AI</text>
            </g>
        </g>
        <g transform="translate(0, 104)">
            <g filter="url(#shadow-m)">
                <rect width="343" height="64" rx="12" fill="white" stroke="#e2e8f0"/>
                <rect x="12" y="12" width="40" height="40" rx="8" fill="#f8fafc"/>
                <text x="64" y="28" font-size="14" font-weight="600" fill="#1e293b">React Docs</text>
                <text x="64" y="46" font-size="11" fill="#64748b">Front-end library</text>
            </g>
        </g>
         <g transform="translate(0, 178)">
            <g filter="url(#shadow-m)">
                <rect width="343" height="64" rx="12" fill="white" stroke="#e2e8f0"/>
                <rect x="12" y="12" width="40" height="40" rx="8" fill="#f8fafc"/>
                <text x="64" y="28" font-size="14" font-weight="600" fill="#1e293b">Tailwind CSS</text>
                <text x="64" y="46" font-size="11" fill="#64748b">CSS Framework</text>
            </g>
        </g>
    </g>
  </g>

  <!-- Bottom Nav -->
  <rect y="730" width="375" height="82" fill="#ffffff" stroke="#e2e8f0"/>
  <rect x="120" y="798" width="135" height="5" rx="2.5" fill="#000000"/>
  
  <g transform="translate(40, 750)">
    <rect width="24" height="24" rx="4" fill="#eff6ff"/>
    <rect x="4" y="4" width="7" height="7" rx="1" fill="#3b82f6"/>
    <rect x="13" y="4" width="7" height="7" rx="1" fill="#3b82f6" fill-opacity="0.5"/>
    <rect x="4" y="13" width="7" height="7" rx="1" fill="#3b82f6" fill-opacity="0.5"/>
    <rect x="13" y="13" width="7" height="7" rx="1" fill="#3b82f6" fill-opacity="0.5"/>
  </g>
  <g transform="translate(175, 750)">
     <circle cx="12" cy="12" r="10" stroke="#94a3b8" stroke-width="2"/>
     <path d="M12 7v5l3 3" stroke="#94a3b8" stroke-width="2" stroke-linecap="round"/>
  </g>
  <g transform="translate(310, 750)">
     <circle cx="12" cy="12" r="10" stroke="#94a3b8" stroke-width="2"/>
     <circle cx="12" cy="12" r="4" fill="#94a3b8"/>
  </g>

</svg>